<svg width="66" height="66" viewBox="0 0 66 66" fill="none" xmlns="http://www.w3.org/2000/svg">
<rect x="5" y="5" width="56" height="56" rx="28" fill="#D1E9FF"/>
<rect x="5" y="5" width="56" height="56" rx="28" stroke="#EFF8FF" stroke-width="10"/>
<path d="M18 33C18 38.7094 21.1922 43.6781 25.8892 46.2141C28.0079 47.3531 30.4267 48 33.0001 48C34.5986 48 36.1408 47.7516 37.5892 47.2828C35.4986 46.8375 33.5814 45.9281 31.9454 44.6672C28.5939 42.0937 26.4376 38.0437 26.4376 33.4875C26.4376 33.4031 26.4376 33.3187 26.4423 33.2344V33.2016C26.4376 33.1359 26.4376 33.0656 26.4376 33C26.4376 32.625 26.4704 32.2594 26.5313 31.9031V31.8891C27.061 28.7953 29.7564 26.4375 33.0001 26.4375C36.6283 26.4375 39.5627 29.3766 39.5627 33C39.5627 33.1875 39.5533 33.3703 39.5393 33.5531C39.5908 33.0797 39.6143 32.5969 39.6143 32.1094C39.6143 27.5578 37.458 23.5125 34.1111 20.9344C32.6673 19.8141 30.9986 18.975 29.1892 18.4875H29.1845C22.7532 20.1797 18 26.0344 18 33Z" fill="#1570EF"/>
<path d="M26.4376 33.4875C26.4376 38.0438 28.5938 42.0938 31.9454 44.6672C33.5814 45.9281 35.4986 46.8375 37.5892 47.2828C43.6315 45.3469 48.0002 39.6844 48.0002 33C48.0002 27.0047 44.4846 21.8344 39.4033 19.4297C37.4627 18.5109 35.2923 18 33.0001 18C31.6829 18 30.4079 18.1688 29.1892 18.4875C30.9985 18.975 32.6673 19.8141 34.1111 20.9344C37.458 23.5125 39.6142 27.5578 39.6142 32.1094C39.6142 32.5969 39.5908 33.0797 39.5392 33.5531C39.5392 33.5625 39.5392 33.5672 39.5346 33.5719C39.5299 33.6375 39.5252 33.7031 39.5158 33.7734C39.5064 33.8813 39.4877 33.9891 39.4736 34.0922C38.9533 37.1953 36.2533 39.5625 33.0001 39.5625C29.4564 39.5625 26.5641 36.75 26.4423 33.2344C26.4376 33.3188 26.4376 33.4031 26.4376 33.4875Z" fill="url(#paint0_linear_170_6678)"/>
<defs>
<linearGradient id="paint0_linear_170_6678" x1="57.836" y1="42.0124" x2="46.5884" y2="11.6419" gradientUnits="userSpaceOnUse">
<stop stop-color="#0A44C9"/>
<stop offset="1" stop-color="#04A3FD"/>
<stop offset="1" stop-color="#04A3FD"/>
</linearGradient>
</defs>
</svg>
