<svg width="132" height="134" viewBox="0 0 132 134" fill="none" xmlns="http://www.w3.org/2000/svg">
<path d="M115.045 133.863H103.323C85.5801 133.863 68.9002 126.946 56.3543 114.385C43.8085 101.825 36.8994 85.1234 36.8994 67.3625C36.8994 49.6017 43.8085 32.9 56.3543 20.3397C68.9002 7.77951 85.5801 0.862549 103.323 0.862549H115.045C123.785 0.862549 131.149 7.67088 131.537 16.4101C131.952 25.7495 124.514 33.4513 115.278 33.4513H103.684C85.298 33.4513 69.988 47.9777 69.4617 66.3767C68.9165 85.5226 84.316 101.274 103.321 101.274H115.278C124.514 101.274 131.952 108.976 131.537 118.315C131.147 127.057 123.785 133.863 115.045 133.863Z" fill="url(#paint0_linear_28_403)"/>
<path d="M65.5381 55.7279C71.8964 62.0862 71.8964 72.395 65.5381 78.7533C59.1798 85.1115 48.871 85.1115 42.5128 78.7533C36.1545 72.395 36.1545 62.0862 42.5128 55.7279C48.871 49.3697 59.1798 49.3697 65.5381 55.7279Z" fill="#1570EF"/>
<defs>
<linearGradient id="paint0_linear_28_403" x1="84.2267" y1="0.862549" x2="84.2267" y2="133.863" gradientUnits="userSpaceOnUse">
<stop stop-color="#1570EF"/>
<stop offset="1" stop-color="#00C2FF"/>
</linearGradient>
</defs>
</svg>
