<svg width="102" height="133" viewBox="0 0 102 133" fill="none" xmlns="http://www.w3.org/2000/svg">
<path d="M85.1638 133H73.4315C55.6714 133 38.9757 126.083 26.4179 113.523C13.8602 100.963 6.94458 84.2609 6.94458 66.5C6.94458 48.7391 13.8602 32.0374 26.4179 19.4772C38.9757 6.91696 55.6714 0 73.4315 0H85.1638C93.9122 0 101.284 6.80833 101.672 15.5475C102.088 24.8869 94.6426 32.5887 85.3973 32.5887H73.7926C55.389 32.5887 40.0645 47.1151 39.5377 65.5142C38.992 84.6601 54.4061 100.411 73.4288 100.411H85.3973C94.6426 100.411 102.088 108.113 101.672 117.452C101.281 126.194 93.9122 133 85.1638 133Z" fill="url(#paint0_linear_421_3972)"/>
<path d="M34.5381 54.8654C40.8964 61.2237 40.8964 71.5325 34.5381 77.8907C28.1798 84.249 17.871 84.249 11.5128 77.8907C5.15449 71.5324 5.15449 61.2236 11.5128 54.8654C17.871 48.5071 28.1798 48.5071 34.5381 54.8654Z" fill="#1570EF"/>
<defs>
<linearGradient id="paint0_linear_421_3972" x1="54.3167" y1="0" x2="54.3167" y2="133" gradientUnits="userSpaceOnUse">
<stop stop-color="#1570EF"/>
<stop offset="1" stop-color="#00C2FF"/>
</linearGradient>
</defs>
</svg>
